<?xml version="1.0" encoding="UTF-8" standalone="no"?>
<svg width="80px" height="80px" viewBox="0 0 80 80" version="1.1" xmlns="http://www.w3.org/2000/svg" xmlns:xlink="http://www.w3.org/1999/xlink" xmlns:sketch="http://www.bohemiancoding.com/sketch/ns">
    <!-- Generator: Sketch 3.4.3 (16618) - http://www.bohemiancoding.com/sketch -->
    <title>icon-crowdfunding</title>
    <desc>Created with Sketch.</desc>
    <defs></defs>
    <g id="Page-1" stroke="none" stroke-width="1" fill="none" fill-rule="evenodd" sketch:type="MSPage">
        <g id="80px" sketch:type="MSArtboardGroup" transform="translate(-547.000000, -102.000000)" fill="#000000">
            <g id="Black" sketch:type="MSLayerGroup" transform="translate(180.000000, 94.000000)">
                <g id="icon-crowdfunding" transform="translate(367.000000, 8.000000)" sketch:type="MSShapeGroup">
                    <g id="Group">
                        <path d="M36.8,9.2 C38,10.8 39.6,11.6 41.2,12.4 C40.4,14.4 40,16 39.6,17.6 L38,17.6 L37.6,17.6 C36.4,17.6 34.8,17.2 33.6,17.2 C33.2,16.4 32.4,15.2 32,14.4 C32,14 31.6,13.6 31.6,13.6 C33.2,12.8 35.2,11.2 36.8,9.2 L36.8,9.2 Z M36.8,0 L36.8,0 C34.8,0 32.8,0.4 30.8,3.6 C29.2,6.4 26.8,6.4 23.2,6.4 C20,6.4 19.2,8.8 20.8,11.2 C21.6,12.4 26.8,21.2 28,23.2 C29.2,24.8 34,26 37.6,26 L38.4,26 C42,26 47.6,24.4 47.2,21.6 C46.8,16.4 52,9.6 52.8,8.8 C54,7.2 53.6,3.6 50.4,3.6 C49.6,3.6 48.8,3.6 48,4 C47.2,4.4 46,4.8 44.8,4.8 C44,4.8 43.2,4.4 42.8,3.6 C40.4,0.4 38.4,0 36.8,0 L36.8,0 L36.8,0 Z" id="Shape"></path>
                        <path d="M28,23.2 C29.2,25.2 34.8,26 38.4,26 C42,26 47.6,24.4 47.2,21.6 C46.8,16.4 52,9.6 52.8,8.8 C51.2,9.6 50,10.8 48.4,10.4 C47.6,11.2 45.6,16 41.6,16 C38.8,16 38.4,12 36.4,12 C34.4,12 34,14.8 32.4,15.2 C28.8,16 26,12.4 24,10 C23.2,10 21.6,8.8 20.8,11.6 C21.6,12.4 26.8,21.2 28,23.2 L28,23.2 Z" id="Shape"></path>
                        <path d="M46.4,27.2 C43.6,28.4 40.4,29.2 38.4,29.2 L37.6,29.2 C36.8,29.2 33.2,29.2 30,28 C12.8,33.2 0,50.8 0,63.2 C0,78 18,80 40,80 C62,80 80,78 80,63.2 C80,50 65.6,31.2 46.4,27.2 L46.4,27.2 Z M38.4,50 C38.8,50.4 39.6,51.2 40.8,52 C43.2,52.8 45.2,54 46.4,55.2 C47.6,56.4 48.4,58.4 48.4,60.8 C48.4,62.8 47.6,64.8 46.4,66 C45.2,67.2 43.6,68 41.6,68.4 L41.6,72 L38.8,72 L38.8,68.4 C36.8,68 34.8,67.2 33.6,66 C32.4,64.8 31.6,62.4 31.6,60 L31.6,60 L36.8,60 C36.8,61.6 37.2,62.8 37.6,63.6 C38,64.4 39.2,64.8 40,64.8 C40.8,64.8 41.6,64.4 42,64 C42.4,63.2 42.8,62.4 42.8,61.6 C42.8,60.4 42.4,59.6 42,59.2 C41.6,58.4 40.8,58 39.6,57.2 C37.2,56.4 35.2,55.2 34,54 C32.8,52.8 32,50.8 32,48.8 C32,46.8 32.8,44.8 34,43.6 C35.2,42.4 36.8,41.6 38.8,41.2 L38.8,37.2 L41.6,37.2 L41.6,41.2 C43.6,41.6 45.2,42.4 46.4,44 C47.6,45.6 48,47.2 48,49.6 L42.8,49.6 C42.8,48.4 42.4,47.2 42,46.4 C41.6,45.6 40.8,45.2 40,45.2 C39.2,45.2 38.4,45.6 38,46 C37.6,46.8 37.6,47.6 37.6,48.4 C38,48.8 38,49.6 38.4,50 L38.4,50 Z" id="Shape"></path>
                    </g>
                </g>
            </g>
        </g>
    </g>
</svg>