<?xml version="1.0" encoding="UTF-8" standalone="no"?>
<svg width="100px" height="85px" viewBox="0 0 100 85" version="1.1" xmlns="http://www.w3.org/2000/svg" xmlns:xlink="http://www.w3.org/1999/xlink" xmlns:sketch="http://www.bohemiancoding.com/sketch/ns">
    <!-- Generator: Sketch 3.4.3 (16618) - http://www.bohemiancoding.com/sketch -->
    <title>icon-people</title>
    <desc>Created with Sketch.</desc>
    <defs></defs>
    <g id="Page-1" stroke="none" stroke-width="1" fill="none" fill-rule="evenodd" sketch:type="MSPage">
        <g id="80px" sketch:type="MSArtboardGroup" transform="translate(-180.000000, -97.000000)" fill="#000000">
            <g id="Black" sketch:type="MSLayerGroup" transform="translate(180.000000, 94.000000)">
                <g id="icon-people" transform="translate(0.000000, 3.000000)" sketch:type="MSShapeGroup">
                    <path d="M12.3121593,70.1034518 C11.332841,73.4535977 10.843683,76.1860224 10.843683,77.3023985 L10.843683,78.4197923 L8.03403183,78.4197923 C8.03403183,78.4197923 6.81113691,77.3023985 5.71053148,78.4197923 C4.60992605,79.5361684 4.36534707,79.9076153 2.40971757,80.0327878 C0.454088067,80.1569427 -1.13567533,78.6660667 1.06453315,78.1714825 C3.26474164,77.6748631 3.75389961,76.9299339 4.24305757,76.6806065 C4.73221554,76.4333144 4.36534707,75.3159207 5.343663,75.3159207 C5.343663,75.3159207 4.85550741,73.7029251 5.83282097,73.5787703 C5.83282097,73.5787703 4.48763656,72.2120491 5.10008639,71.3450004 C5.71053148,70.4759163 6.4452708,67.4972173 6.32298131,63.7735891 C6.20069182,60.0499608 5.71153385,48.2583018 5.83382334,46.5211514 L4.97679453,46.5211514 C4.97679453,46.5211514 5.34266063,38.452103 5.34266063,37.211572 L4.60992605,36.4656252 C4.60992605,36.4656252 5.22037114,34.6043199 5.58924436,33.3627713 C5.95611284,32.1212226 5.83282097,29.8874528 6.19968945,28.5227669 C6.56555555,27.1560458 7.33537793,21.6952671 6.82817725,19.8329442 C6.32197894,17.9716389 5.95511046,16.7300903 7.54487386,16.2344885 C9.13463725,15.737869 11.0902668,15.6137142 11.4571352,15.1170947 C11.8230013,14.6204753 12.0665779,14.1228381 12.8023196,14.1228381 C13.5350542,14.1228381 14.8792363,12.3846701 15.6139756,12.2615329 C15.6139756,12.2615329 15.9808441,10.5233648 15.6139756,8.91036922 C15.6139756,8.91036922 14.2697935,7.42051087 15.12582,6.67659935 C15.12582,6.67659935 14.7579491,4.44282948 16.3477125,2.95297112 C17.9374759,1.46311276 19.7718183,1.58624996 20.6278448,2.95297112 C21.4828688,4.31867461 21.8497373,5.06360379 21.8497373,6.18099756 C21.8497373,7.29839133 22.3398976,8.78723202 21.7274478,9.15969661 C21.1170027,9.5321612 20.6268424,12.5108602 21.1170027,12.75917 C21.6061607,13.006462 21.9730292,13.7513912 21.9730292,14.7446301 C21.9730292,14.7446301 23.1959241,14.6194576 23.9286587,14.1238558 C24.6613933,13.628254 25.0292641,12.75917 25.0292641,12.0142408 C25.0292641,11.2703293 24.1732377,9.65631606 24.1732377,9.65631606 C24.1732377,9.65631606 23.0726322,7.91814798 23.8063692,7.29940899 C23.8063692,7.29940899 22.7067661,1.68191027 27.230475,1.88340751 C31.7531814,2.08592241 30.7758679,6.67863468 30.7758679,6.67863468 C30.7758679,6.67863468 32.1771851,8.29163023 30.865079,8.91240455 C30.865079,8.91240455 29.5529729,10.5264178 30.1644204,12.0152585 C30.7758679,13.5051168 30.8540529,11.8911036 31.4264079,13.0084974 C31.9987628,14.1258911 33.5875238,14.250046 34.8104187,13.8775814 C34.8104187,13.8775814 34.5658397,12.2635682 34.8104187,10.4012452 C35.0549977,8.53993996 34.0766818,8.53993996 33.9543923,6.55447981 C33.8321028,4.56901967 34.9327082,0.597081712 39.3331252,0.597081712 C43.7335421,0.597081712 43.2463889,3.07814365 43.7345445,4.19553741 C43.7345445,4.19553741 47.768093,1.83659502 48.9909879,5.93268783 C50.2148852,10.027763 49.2355669,10.1529355 48.9909879,10.8978647 C48.9909879,10.8978647 48.6251218,13.8775814 48.5028323,14.6214929 C48.5028323,14.6214929 49.4821506,13.5040992 50.7040432,13.5040992 C51.9259357,13.5040992 51.6813568,11.8900859 52.7819622,11.7669487 C53.8825676,11.6417762 54.4920103,11.0230372 53.7592757,9.409024 C53.0265412,7.79501078 50.8543991,4.19553741 54.0800351,1.09166584 C56.6932212,-1.01794917 59.9940351,0.222581797 60.8510639,2.33321447 C61.706088,4.44384714 61.461509,5.93268783 61.461509,5.93268783 C61.461509,5.93268783 63.9062965,3.07814365 65.7406388,5.06462146 C67.5749812,7.0500816 67.6972707,10.1529355 67.6972707,10.1529355 C67.6972707,10.1529355 70.0197687,11.1461744 69.7751897,13.628254 C69.7751897,13.628254 70.6312162,13.6272364 71.1203741,13.0074797 C71.6095321,12.3867054 72.7091351,12.3867054 72.7091351,12.3867054 C72.7091351,12.3867054 72.7091351,11.0220196 72.2199772,10.0287807 C71.7308192,9.03655941 70.8757951,7.1732188 70.7535056,5.9337055 C70.6312162,4.69215687 71.1203741,1.0926835 73.8097406,1.46514809 C73.8097406,1.46514809 74.910346,-0.396157193 77.1115569,1.21785603 C79.310763,2.83085158 79.310763,4.69215687 78.5780284,6.43032495 C77.8452938,8.16747537 77.232844,8.4157851 77.5997125,9.41004166 L76.8669779,9.53419653 C76.8669779,9.53419653 76.5001094,12.387723 76.988265,12.6370504 C77.477423,12.8853602 78.5990782,12.2645858 79.0160653,13.5061345 C79.4330525,14.7476831 79.4330525,12.762223 79.7989186,12.140431 C80.165787,11.5206743 80.165787,10.4022629 79.7989186,9.78250625 C79.4330525,9.1627496 78.7604603,7.42458152 80.0745711,6.8038072 C80.0745711,6.8038072 79.0651816,2.21109493 83.5898928,2.21109493 C86.6461277,1.96278521 86.7684172,4.19655508 86.7684172,4.19655508 C86.7684172,4.19655508 90.437102,3.20331617 91.7802817,5.31394884 C93.1254661,7.42356385 93.2487579,10.5274354 93.1254661,11.2713469 C93.0031766,12.0152585 92.5160234,14.1258911 91.6589945,14.1258911 C90.8019657,14.1258911 90.9272623,15.2443026 92.1471501,15.1201477 C93.3700451,14.9959928 94.9588061,15.1201477 95.6935454,16.1123689 C96.42628,17.1066255 96.42628,18.2230016 96.42628,18.2230016 C96.42628,18.2230016 97.8927515,18.0988467 97.8927515,19.4645502 C97.8927515,20.8302537 98.015041,22.1949396 98.8720698,23.3123333 C99.7280963,24.4297271 99.3602254,25.5461032 99.4825149,27.0349439 C99.6048044,28.5258199 100.58312,29.3938863 99.4825149,30.1388155 C98.3819095,30.8837447 97.1600169,30.5102624 97.1600169,30.5102624 C97.1600169,30.5102624 96.670859,33.7382888 97.4035935,36.3445233 C98.1363281,38.9507578 98.5062037,40.9362179 98.0160434,46.3980142 C97.5268854,51.8587929 97.1590146,59.4312219 96.6698566,60.9210802 C96.181701,62.4099209 96.4252776,66.3808412 96.3029881,67.7465447 C96.181701,69.1132658 95.937122,75.4421109 95.937122,75.4421109 L94.9578037,75.4421109 C94.9578037,75.4421109 95.5692512,77.5507082 96.42628,78.1735179 C97.2823064,78.7932745 99.4825149,81.5236638 96.42628,80.7797523 C93.3690427,80.0358408 93.2477556,77.8010533 93.2477556,77.8010533 L93.3690427,80.0348231 L92.5140186,80.0348231 L92.5140186,77.5527435 C92.5140186,77.5527435 91.4124108,77.180279 91.7792793,75.1948188 C91.7792793,75.1948188 90.9232528,74.4509073 90.8009634,71.098726 C90.6796762,67.7475624 90.4350972,62.7834032 90.8009634,59.928859 C91.1678318,57.0732971 90.6786739,53.9704432 90.8009634,52.6057574 C90.9242552,51.2400539 90.5563844,45.5299478 90.5563844,45.0343461 C90.5563844,44.5377266 89.3334894,43.2971956 89.0899128,45.6551204 C88.8463362,48.0120274 88.7230444,51.2390362 88.2338864,54.7143547 C87.7457308,58.1906909 87.0119938,62.6592483 86.6451254,67.126788 C86.2782569,71.5963631 86.4005464,74.9475267 86.0346803,76.4353498 C85.6678118,77.9252081 85.3009433,79.6623586 85.3009433,80.0348231 C85.3009433,80.4062701 86.1569698,82.3927479 86.1569698,83.2618319 L81.0228159,83.2618319 C81.0228159,83.2618319 81.5119738,82.0202833 80.4123708,81.6488364 C79.310763,81.2763718 78.7003179,80.7797523 78.4567413,81.7729912 L74.7890589,82.0202833 C74.7890589,82.0202833 76.1332409,84.0067611 75.8886619,85 L71.4872426,85 L71.3649531,82.1454558 C71.3649531,82.1454558 70.1420582,81.8971461 69.8974792,79.9106683 C69.6539026,77.9252081 67.2081127,67.2519606 65.6193517,53.3486512 C65.6193517,53.3486512 65.2514809,58.685275 65.8629283,63.2779873 C66.4743758,67.8717172 66.9635338,71.9667924 66.9635338,73.9532702 C66.9635338,75.9377127 66.7189548,77.3044338 66.7189548,77.3044338 C66.7189548,77.3044338 67.8195602,79.0415842 67.8195602,80.4062701 C67.8195602,80.4062701 63.9083012,80.9028895 63.1745643,80.7787347 L63.1745643,78.0483453 C63.1745643,78.0483453 61.706088,78.0473277 61.706088,76.3101772 C61.706088,74.5730268 60.2396164,70.7252437 60.2396164,70.7252437 C60.2396164,70.7252437 59.8737503,76.9319692 59.7504585,78.9174294 C59.6291714,80.9028895 59.38359,82.268593 58.894432,82.268593 C58.894432,82.268593 60.3629083,83.5111593 60.1183293,85 L55.1064649,85 C55.1064649,85 54.9841754,83.0145399 55.472331,82.1454558 L54.4930127,81.7729912 C54.4930127,81.7729912 53.6379886,79.6623586 53.88357,78.5449648 C53.88357,78.5449648 51.6232191,79.289894 50.0023822,78.9174294 C50.0023822,78.9174294 51.257353,80.0348231 50.0023822,80.4062701 C48.7484137,80.7787347 47.6478083,80.4062701 47.6478083,80.4062701 C47.6478083,80.4062701 45.4475998,83.0135222 45.0797289,80.2841505 L45.5688869,76.6826418 L44.8361523,76.4353498 C44.8361523,76.4353498 44.2247049,73.5797879 43.2463889,75.9387303 C43.2463889,75.9387303 43.2463889,76.3111949 40.3114411,77.3054515 C37.3774957,78.2976727 38.2335221,76.6836595 38.2335221,76.6836595 C38.2335221,76.6836595 33.8321028,77.180279 36.034316,75.939748 C38.2335221,74.699217 39.8222831,73.3335135 39.8222831,73.3335135 L38.3558116,72.9600313 C38.3558116,72.9600313 39.0885462,69.8571774 38.4770987,67.3750978 C37.867656,64.8940358 36.8883377,60.5486156 36.2778926,59.1829121 C35.6674475,57.8182263 35.1772872,56.4525228 35.1772872,53.4748414 C35.1772872,50.49716 34.0756794,48.1382176 34.0756794,48.1382176 C34.0756794,48.1382176 33.8321028,53.3506866 33.0983658,56.9501599 C32.3646289,60.5496333 31.6308919,63.1568854 30.652576,64.1491066 C30.652576,64.1491066 31.5096048,69.3615756 31.6318943,71.720518 C31.7531814,74.077425 31.8764733,75.939748 31.8764733,76.9329869 C31.8764733,77.9262258 31.7531814,78.7942922 32.6092079,79.4150665 C33.4652343,80.0348231 34.1979689,81.1522169 32.8527845,81.4005266 C31.5086024,81.6488364 27.84092,81.4005266 27.84092,81.4005266 L27.5973434,79.4150665 C27.5973434,79.4150665 26.4947333,78.918447 26.2511566,77.3054515 C26.00758,75.6914383 26.00758,75.1948188 26.00758,75.1948188 L23.6840797,77.6768984 C23.6840797,77.6768984 22.8290556,80.4072877 23.8063692,81.5236638 C24.7856875,82.6420753 24.6623956,84.0067611 23.3172112,83.8826062 C21.9740315,83.7584514 19.6505312,84.1298983 19.7728207,80.158978 L18.1830573,80.7787347 C18.1830573,80.7787347 10.480824,81.7729912 12.5597454,79.537186 L14.6386668,77.3044338 C14.6386668,77.3044338 15.1248176,61.0421821 13.6563413,59.5523237 C13.6563413,59.5523237 13.2894729,66.7522881 12.3121593,70.1034518 Z" id="icon-people-black"></path>
                </g>
            </g>
        </g>
    </g>
</svg>