<?xml version="1.0" encoding="UTF-8" standalone="no"?>
<svg width="94px" height="85px" viewBox="0 0 94 85" version="1.1" xmlns="http://www.w3.org/2000/svg" xmlns:xlink="http://www.w3.org/1999/xlink" xmlns:sketch="http://www.bohemiancoding.com/sketch/ns">
    <!-- Generator: Sketch 3.4.3 (16618) - http://www.bohemiancoding.com/sketch -->
    <title>icon-land-preservation</title>
    <desc>Created with Sketch.</desc>
    <defs></defs>
    <g id="Page-1" stroke="none" stroke-width="1" fill="none" fill-rule="evenodd" sketch:type="MSPage">
        <g id="80px" sketch:type="MSArtboardGroup" transform="translate(-316.000000, -97.000000)" fill="#010101">
            <g id="Black" sketch:type="MSLayerGroup" transform="translate(180.000000, 94.000000)">
                <g id="icon-land-preservation" transform="translate(136.000000, 3.000000)" sketch:type="MSShapeGroup">
                    <path d="M15.3964554,32.4457143 L36.7791287,54.4663187 L36.7791287,84.4040659 L36.6097426,84.4040659 L36.6097426,84.5012088 L19.0745545,84.5012088 L19.0745545,71.5774725 L1.1819802,47.8521978 C0.466277228,46.9676374 0,45.8794505 0,44.6866484 L0,8.23098901 C0,5.37835165 2.30811881,3.05532967 5.16255446,3.05532967 C7.99837624,3.05532967 10.3130099,5.37835165 10.3130099,8.23098901 L10.3130099,29.2839011 C9.0649505,29.5575824 7.87738614,30.0834615 6.92621782,31.0165934 C4.19370297,33.7010989 4.12669307,38.1098901 6.79312871,40.8588462 L16.5542376,50.9318132 L17.8814059,49.6287912 L8.10726733,39.581978 C6.15653465,37.5541209 6.19841584,34.311978 8.19847525,32.3364286 C8.82855446,31.7432967 9.56752475,31.3210989 10.3614059,31.095989 C11.210198,30.8531319 12.0878416,30.840989 12.9301188,31.0175275 C13.8822178,31.2538462 14.7300792,31.7432967 15.3964554,32.4457143 L15.3964554,32.4457143 Z" id="Shape"></path>
                    <path d="M77.6793663,32.4457143 L56.2855248,54.4663187 L56.2855248,84.4040659 L56.4549109,84.4040659 L56.4549109,84.5012088 L74.002198,84.5012088 L74.002198,71.5774725 L91.8873267,47.8521978 C92.6039604,46.9676374 93.0702376,45.8794505 93.0702376,44.6857143 L93.0702376,8.23098901 C93.0702376,5.37835165 90.7630495,3.05532967 87.9076832,3.05532967 C85.0718614,3.05532967 82.7572277,5.37835165 82.7572277,8.23098901 L82.7572277,29.2839011 C84.011802,29.5575824 85.1928515,30.0834615 86.1458812,31.0165934 C88.8830495,33.7010989 88.9519208,38.1098901 86.2836238,40.8588462 L76.516,50.9318132 L75.1823168,49.6297253 L84.9620396,39.581044 C86.9146337,37.5531868 86.8708911,34.311044 84.8652475,32.3354945 C84.2472673,31.7423626 83.4887525,31.3201648 82.7023168,31.0950549 C81.8665545,30.8521978 80.9805347,30.8400549 80.1391881,31.0165934 C79.193604,31.2538462 78.3457426,31.7432967 77.6793663,32.4457143 L77.6793663,32.4457143 Z" id="Shape"></path>
                    <path d="M31.4397426,28.2190659 L35.7572277,28.2190659 L28.3991683,42.3290659 L44.2153663,42.3290659 L44.2153663,48.6536264 L49.0633465,48.6536264 L49.0633465,42.3290659 L64.6701386,42.3290659 L57.3120792,28.2190659 L61.6295644,28.2190659 L52.3319406,14.1090659 L56.648495,14.1090659 L46.6882178,0 L36.4198812,14.1090659 L40.738297,14.1090659 L31.4397426,28.2190659 Z" id="Shape"></path>
                </g>
            </g>
        </g>
    </g>
</svg>