<?xml version="1.0" encoding="UTF-8" standalone="no"?>
<svg width="40px" height="34px" viewBox="0 0 40 34" version="1.1" xmlns="http://www.w3.org/2000/svg" xmlns:xlink="http://www.w3.org/1999/xlink" xmlns:sketch="http://www.bohemiancoding.com/sketch/ns">
    <!-- Generator: Sketch 3.4.4 (17249) - http://www.bohemiancoding.com/sketch -->
    <title>icon-twitter</title>
    <desc>Created with Sketch.</desc>
    <defs></defs>
    <g id="Page-1" stroke="none" stroke-width="1" fill="none" fill-rule="evenodd" sketch:type="MSPage">
        <g id="icon-twitter" sketch:type="MSLayerGroup" fill="#000000">
            <path d="M40,4.07018452 C38.5283495,4.75058929 36.946699,5.2105 35.286699,5.41702976 C36.9807767,4.35847619 38.282233,2.68235714 38.8948544,0.684958333 C37.3091262,1.66519048 35.5529126,2.37696429 33.6835922,2.76047619 C32.186699,1.09811905 30.0538835,0.0596011905 27.6934951,0.0596011905 C22.3964078,0.0596011905 18.5024272,5.21181548 19.6996117,10.5618571 C12.8792233,10.2052619 6.83223301,6.79989881 2.78475728,1.62532143 C0.635048544,5.46883929 1.66970874,10.4988155 5.32436893,13.0446667 C3.97932039,13.0003452 2.71359223,12.6155179 1.60737864,11.9746786 C1.51834951,15.9375 4.24291262,19.642994 8.18941748,20.4695179 C7.03446602,20.7970714 5.76941748,20.8720536 4.48359223,20.6159405 C5.5276699,24.0139167 8.55854369,26.4868095 12.1496117,26.5557202 C8.69941748,29.3737738 4.35398058,30.6324821 0,30.0976905 C3.63165049,32.5244405 7.94533981,33.9406012 12.5797087,33.9406012 C27.8158252,33.9406012 36.4238835,20.5277024 35.9050485,8.49777381 C37.5086408,7.2918869 38.8998058,5.78546429 40,4.07018452 L40,4.07018452 Z" id="twitter-icon" sketch:type="MSShapeGroup"></path>
        </g>
    </g>
</svg>