<?xml version="1.0" encoding="UTF-8" standalone="no"?>
<svg width="40px" height="40px" viewBox="0 0 40 40" version="1.1" xmlns="http://www.w3.org/2000/svg" xmlns:xlink="http://www.w3.org/1999/xlink" xmlns:sketch="http://www.bohemiancoding.com/sketch/ns">
    <!-- Generator: Sketch 3.4.4 (17249) - http://www.bohemiancoding.com/sketch -->
    <title>icon-github</title>
    <desc>Created with Sketch.</desc>
    <defs></defs>
    <g id="Page-1" stroke="none" stroke-width="1" fill="none" fill-rule="evenodd" sketch:type="MSPage">
        <g id="icon-github" sketch:type="MSLayerGroup" fill="#151513">
            <g id="Fill-3" sketch:type="MSShapeGroup">
                <g id="Page-1">
                    <g id="GitHub-Mark">
                        <path d="M0.387878788,20.2969697 C0.387878788,29.0206061 6.04484848,36.4206061 13.8909091,39.0315152 C14.8787879,39.2133333 15.2387879,38.6036364 15.2387879,38.08 C15.2387879,37.6121212 15.2218182,36.369697 15.2121212,34.7224242 C9.72,35.9151515 8.56121212,32.0751515 8.56121212,32.0751515 C7.6630303,29.7939394 6.36848485,29.1866667 6.36848485,29.1866667 C4.57575758,27.9624242 6.50424242,27.9866667 6.50424242,27.9866667 C8.48606061,28.1260606 9.52848485,30.0218182 9.52848485,30.0218182 C11.289697,33.0387879 14.150303,32.1672727 15.2751515,31.6618182 C15.4545455,30.3866667 15.9648485,29.5163636 16.5284848,29.0230303 C12.1442424,28.5248485 7.53454545,26.830303 7.53454545,19.2642424 C7.53454545,17.1090909 8.30424242,15.3454545 9.56727273,13.9660606 C9.36363636,13.4666667 8.68606061,11.4581818 9.76121212,8.74060606 C9.76121212,8.74060606 11.4181818,8.20969697 15.190303,10.7648485 C16.7648485,10.3260606 18.4545455,10.1078788 20.1333333,10.0993939 C21.8109091,10.1078788 23.4993939,10.3260606 25.0763636,10.7648485 C28.8460606,8.20969697 30.5006061,8.74060606 30.5006061,8.74060606 C31.5781818,11.4581818 30.9006061,13.4666667 30.6981818,13.9660606 C31.9636364,15.3454545 32.7272727,17.1090909 32.7272727,19.2642424 C32.7272727,26.849697 28.110303,28.5187879 23.7127273,29.0072727 C24.4206061,29.6169697 25.0521212,30.8218182 25.0521212,32.6642424 C25.0521212,35.3030303 25.0278788,37.4327273 25.0278788,38.08 C25.0278788,38.6084848 25.3842424,39.2230303 26.3854545,39.030303 C34.2254545,36.4133333 39.8775758,29.0181818 39.8775758,20.2969697 C39.8775758,9.39151515 31.0363636,0.551515152 20.1309091,0.551515152 C9.22909091,0.551515152 0.387878788,9.39151515 0.387878788,20.2969697 L0.387878788,20.2969697 Z" id="Fill-3"></path>
                    </g>
                </g>
            </g>
        </g>
    </g>
</svg>